<mxfile host="Electron" modified="2024-01-03T08:23:34.438Z" agent="Mozilla/5.0 (Macintosh; Intel Mac OS X 10_15_7) AppleWebKit/537.36 (KHTML, like Gecko) draw.io/22.1.16 Chrome/120.0.6099.109 Electron/28.1.0 Safari/537.36" etag="d3oKu1jFNQ1CW0lV8o3M" version="22.1.16" type="device">
  <diagram name="第 1 页" id="tq0W0Ahql4t3mRb2m4NU">
    <mxGraphModel dx="3652" dy="1306" grid="1" gridSize="10" guides="1" tooltips="1" connect="1" arrows="1" fold="1" page="1" pageScale="1" pageWidth="1600" pageHeight="1200" math="0" shadow="0">
      <root>
        <mxCell id="0" />
        <mxCell id="1" parent="0" />
        <mxCell id="PmI6m0k7PpWO34Folj4--8" value="list.push(2).push(3)" style="text;html=1;strokeColor=none;fillColor=none;align=center;verticalAlign=middle;whiteSpace=wrap;rounded=0;fontSize=24;" parent="1" vertex="1">
          <mxGeometry x="-80" y="600" width="240" height="30" as="geometry" />
        </mxCell>
        <mxCell id="PmI6m0k7PpWO34Folj4--9" value="" style="rounded=0;whiteSpace=wrap;html=1;align=left;verticalAlign=top;" parent="1" vertex="1">
          <mxGeometry x="200" y="360" width="350" height="160" as="geometry" />
        </mxCell>
        <mxCell id="PmI6m0k7PpWO34Folj4--10" value="&lt;span style=&quot;font-size: 24px;&quot;&gt;head&lt;br&gt;&lt;/span&gt;" style="rounded=0;whiteSpace=wrap;html=1;" parent="1" vertex="1">
          <mxGeometry x="210" y="430" width="80" height="80" as="geometry" />
        </mxCell>
        <mxCell id="PmI6m0k7PpWO34Folj4--11" value="&lt;font style=&quot;font-size: 24px;&quot;&gt;tail&lt;/font&gt;" style="rounded=0;whiteSpace=wrap;html=1;" parent="1" vertex="1">
          <mxGeometry x="380" y="430" width="80" height="80" as="geometry" />
        </mxCell>
        <mxCell id="PmI6m0k7PpWO34Folj4--12" value="&lt;font style=&quot;font-size: 24px;&quot;&gt;Some&lt;/font&gt;" style="rounded=0;whiteSpace=wrap;html=1;" parent="1" vertex="1">
          <mxGeometry x="290" y="430" width="80" height="80" as="geometry" />
        </mxCell>
        <mxCell id="PmI6m0k7PpWO34Folj4--13" value="&lt;font style=&quot;font-size: 24px;&quot;&gt;Some&lt;/font&gt;" style="rounded=0;whiteSpace=wrap;html=1;" parent="1" vertex="1">
          <mxGeometry x="460" y="430" width="80" height="80" as="geometry" />
        </mxCell>
        <mxCell id="PmI6m0k7PpWO34Folj4--14" value="&lt;font style=&quot;font-size: 24px;&quot;&gt;LinkedList&lt;/font&gt;" style="text;html=1;strokeColor=none;fillColor=none;align=center;verticalAlign=middle;whiteSpace=wrap;rounded=0;" parent="1" vertex="1">
          <mxGeometry x="230" y="380" width="140" height="30" as="geometry" />
        </mxCell>
        <mxCell id="PmI6m0k7PpWO34Folj4--19" value="" style="rounded=0;whiteSpace=wrap;html=1;align=left;verticalAlign=top;" parent="1" vertex="1">
          <mxGeometry x="640" y="360" width="350" height="160" as="geometry" />
        </mxCell>
        <mxCell id="PmI6m0k7PpWO34Folj4--20" value="&lt;span style=&quot;font-size: 24px;&quot;&gt;val&lt;br&gt;&lt;/span&gt;" style="rounded=0;whiteSpace=wrap;html=1;" parent="1" vertex="1">
          <mxGeometry x="650" y="430" width="80" height="80" as="geometry" />
        </mxCell>
        <mxCell id="PmI6m0k7PpWO34Folj4--21" value="&lt;font style=&quot;font-size: 24px;&quot;&gt;next&lt;/font&gt;" style="rounded=0;whiteSpace=wrap;html=1;" parent="1" vertex="1">
          <mxGeometry x="820" y="430" width="80" height="80" as="geometry" />
        </mxCell>
        <mxCell id="PmI6m0k7PpWO34Folj4--22" value="&lt;font style=&quot;font-size: 24px;&quot;&gt;1&lt;/font&gt;" style="rounded=0;whiteSpace=wrap;html=1;" parent="1" vertex="1">
          <mxGeometry x="730" y="430" width="80" height="80" as="geometry" />
        </mxCell>
        <mxCell id="PmI6m0k7PpWO34Folj4--23" value="&lt;font style=&quot;font-size: 24px;&quot;&gt;None&lt;/font&gt;" style="rounded=0;whiteSpace=wrap;html=1;" parent="1" vertex="1">
          <mxGeometry x="900" y="430" width="80" height="80" as="geometry" />
        </mxCell>
        <mxCell id="PmI6m0k7PpWO34Folj4--24" value="&lt;font style=&quot;font-size: 24px;&quot;&gt;Node&lt;/font&gt;" style="text;html=1;strokeColor=none;fillColor=none;align=center;verticalAlign=middle;whiteSpace=wrap;rounded=0;" parent="1" vertex="1">
          <mxGeometry x="670" y="380" width="140" height="30" as="geometry" />
        </mxCell>
        <mxCell id="PmI6m0k7PpWO34Folj4--25" value="" style="curved=1;endArrow=classic;html=1;rounded=0;" parent="1" source="PmI6m0k7PpWO34Folj4--12" target="PmI6m0k7PpWO34Folj4--19" edge="1">
          <mxGeometry width="50" height="50" relative="1" as="geometry">
            <mxPoint x="320" y="580" as="sourcePoint" />
            <mxPoint x="370" y="530" as="targetPoint" />
            <Array as="points">
              <mxPoint x="440" y="580" />
            </Array>
          </mxGeometry>
        </mxCell>
        <mxCell id="PmI6m0k7PpWO34Folj4--26" value="" style="curved=1;endArrow=classic;html=1;rounded=0;" parent="1" source="PmI6m0k7PpWO34Folj4--13" target="PmI6m0k7PpWO34Folj4--19" edge="1">
          <mxGeometry width="50" height="50" relative="1" as="geometry">
            <mxPoint x="495" y="520" as="sourcePoint" />
            <mxPoint x="478" y="610" as="targetPoint" />
            <Array as="points">
              <mxPoint x="580" y="500" />
            </Array>
          </mxGeometry>
        </mxCell>
        <mxCell id="7j6lfnYyGTvN87-KgUNk-1" value="" style="rounded=0;whiteSpace=wrap;html=1;align=left;verticalAlign=top;" parent="1" vertex="1">
          <mxGeometry x="200" y="600" width="350" height="160" as="geometry" />
        </mxCell>
        <mxCell id="7j6lfnYyGTvN87-KgUNk-2" value="&lt;span style=&quot;font-size: 24px;&quot;&gt;head&lt;br&gt;&lt;/span&gt;" style="rounded=0;whiteSpace=wrap;html=1;" parent="1" vertex="1">
          <mxGeometry x="210" y="670" width="80" height="80" as="geometry" />
        </mxCell>
        <mxCell id="7j6lfnYyGTvN87-KgUNk-3" value="&lt;font style=&quot;font-size: 24px;&quot;&gt;tail&lt;/font&gt;" style="rounded=0;whiteSpace=wrap;html=1;" parent="1" vertex="1">
          <mxGeometry x="380" y="670" width="80" height="80" as="geometry" />
        </mxCell>
        <mxCell id="7j6lfnYyGTvN87-KgUNk-4" value="&lt;font style=&quot;font-size: 24px;&quot;&gt;Some&lt;/font&gt;" style="rounded=0;whiteSpace=wrap;html=1;" parent="1" vertex="1">
          <mxGeometry x="290" y="670" width="80" height="80" as="geometry" />
        </mxCell>
        <mxCell id="7j6lfnYyGTvN87-KgUNk-5" value="&lt;font style=&quot;font-size: 24px;&quot;&gt;Some&lt;/font&gt;" style="rounded=0;whiteSpace=wrap;html=1;" parent="1" vertex="1">
          <mxGeometry x="460" y="670" width="80" height="80" as="geometry" />
        </mxCell>
        <mxCell id="7j6lfnYyGTvN87-KgUNk-6" value="&lt;font style=&quot;font-size: 24px;&quot;&gt;LinkedList&lt;/font&gt;" style="text;html=1;strokeColor=none;fillColor=none;align=center;verticalAlign=middle;whiteSpace=wrap;rounded=0;" parent="1" vertex="1">
          <mxGeometry x="230" y="620" width="140" height="30" as="geometry" />
        </mxCell>
        <mxCell id="7j6lfnYyGTvN87-KgUNk-7" value="" style="rounded=0;whiteSpace=wrap;html=1;align=left;verticalAlign=top;" parent="1" vertex="1">
          <mxGeometry x="200" y="800" width="350" height="160" as="geometry" />
        </mxCell>
        <mxCell id="7j6lfnYyGTvN87-KgUNk-8" value="&lt;span style=&quot;font-size: 24px;&quot;&gt;val&lt;br&gt;&lt;/span&gt;" style="rounded=0;whiteSpace=wrap;html=1;" parent="1" vertex="1">
          <mxGeometry x="210" y="870" width="80" height="80" as="geometry" />
        </mxCell>
        <mxCell id="7j6lfnYyGTvN87-KgUNk-9" value="&lt;font style=&quot;font-size: 24px;&quot;&gt;next&lt;/font&gt;" style="rounded=0;whiteSpace=wrap;html=1;" parent="1" vertex="1">
          <mxGeometry x="380" y="870" width="80" height="80" as="geometry" />
        </mxCell>
        <mxCell id="7j6lfnYyGTvN87-KgUNk-10" value="&lt;font style=&quot;font-size: 24px;&quot;&gt;1&lt;/font&gt;" style="rounded=0;whiteSpace=wrap;html=1;" parent="1" vertex="1">
          <mxGeometry x="290" y="870" width="80" height="80" as="geometry" />
        </mxCell>
        <mxCell id="7j6lfnYyGTvN87-KgUNk-11" value="&lt;font style=&quot;font-size: 24px;&quot;&gt;Some&lt;/font&gt;" style="rounded=0;whiteSpace=wrap;html=1;" parent="1" vertex="1">
          <mxGeometry x="460" y="870" width="80" height="80" as="geometry" />
        </mxCell>
        <mxCell id="7j6lfnYyGTvN87-KgUNk-12" value="&lt;font style=&quot;font-size: 24px;&quot;&gt;Node&lt;/font&gt;" style="text;html=1;strokeColor=none;fillColor=none;align=center;verticalAlign=middle;whiteSpace=wrap;rounded=0;" parent="1" vertex="1">
          <mxGeometry x="230" y="820" width="140" height="30" as="geometry" />
        </mxCell>
        <mxCell id="7j6lfnYyGTvN87-KgUNk-13" value="" style="curved=1;endArrow=classic;html=1;rounded=0;" parent="1" source="7j6lfnYyGTvN87-KgUNk-4" target="7j6lfnYyGTvN87-KgUNk-7" edge="1">
          <mxGeometry width="50" height="50" relative="1" as="geometry">
            <mxPoint x="320" y="820" as="sourcePoint" />
            <mxPoint x="370" y="770" as="targetPoint" />
            <Array as="points">
              <mxPoint x="320" y="780" />
            </Array>
          </mxGeometry>
        </mxCell>
        <mxCell id="7j6lfnYyGTvN87-KgUNk-14" value="" style="curved=1;endArrow=classic;html=1;rounded=0;" parent="1" source="7j6lfnYyGTvN87-KgUNk-5" target="7j6lfnYyGTvN87-KgUNk-22" edge="1">
          <mxGeometry width="50" height="50" relative="1" as="geometry">
            <mxPoint x="495" y="760" as="sourcePoint" />
            <mxPoint x="478" y="850" as="targetPoint" />
            <Array as="points">
              <mxPoint x="930" y="740" />
            </Array>
          </mxGeometry>
        </mxCell>
        <mxCell id="7j6lfnYyGTvN87-KgUNk-15" value="" style="rounded=0;whiteSpace=wrap;html=1;align=left;verticalAlign=top;" parent="1" vertex="1">
          <mxGeometry x="640" y="800" width="350" height="160" as="geometry" />
        </mxCell>
        <mxCell id="7j6lfnYyGTvN87-KgUNk-16" value="&lt;span style=&quot;font-size: 24px;&quot;&gt;val&lt;br&gt;&lt;/span&gt;" style="rounded=0;whiteSpace=wrap;html=1;" parent="1" vertex="1">
          <mxGeometry x="650" y="870" width="80" height="80" as="geometry" />
        </mxCell>
        <mxCell id="7j6lfnYyGTvN87-KgUNk-17" value="&lt;font style=&quot;font-size: 24px;&quot;&gt;next&lt;/font&gt;" style="rounded=0;whiteSpace=wrap;html=1;" parent="1" vertex="1">
          <mxGeometry x="820" y="870" width="80" height="80" as="geometry" />
        </mxCell>
        <mxCell id="7j6lfnYyGTvN87-KgUNk-18" value="&lt;font style=&quot;font-size: 24px;&quot;&gt;2&lt;/font&gt;" style="rounded=0;whiteSpace=wrap;html=1;" parent="1" vertex="1">
          <mxGeometry x="730" y="870" width="80" height="80" as="geometry" />
        </mxCell>
        <mxCell id="7j6lfnYyGTvN87-KgUNk-19" value="&lt;font style=&quot;font-size: 24px;&quot;&gt;Some&lt;/font&gt;" style="rounded=0;whiteSpace=wrap;html=1;" parent="1" vertex="1">
          <mxGeometry x="900" y="870" width="80" height="80" as="geometry" />
        </mxCell>
        <mxCell id="7j6lfnYyGTvN87-KgUNk-20" value="&lt;font style=&quot;font-size: 24px;&quot;&gt;Node&lt;/font&gt;" style="text;html=1;strokeColor=none;fillColor=none;align=center;verticalAlign=middle;whiteSpace=wrap;rounded=0;" parent="1" vertex="1">
          <mxGeometry x="670" y="820" width="140" height="30" as="geometry" />
        </mxCell>
        <mxCell id="7j6lfnYyGTvN87-KgUNk-21" value="" style="curved=1;endArrow=classic;html=1;rounded=0;" parent="1" source="7j6lfnYyGTvN87-KgUNk-11" target="7j6lfnYyGTvN87-KgUNk-15" edge="1">
          <mxGeometry width="50" height="50" relative="1" as="geometry">
            <mxPoint x="1030" y="770" as="sourcePoint" />
            <mxPoint x="1080" y="720" as="targetPoint" />
            <Array as="points">
              <mxPoint x="600" y="930" />
            </Array>
          </mxGeometry>
        </mxCell>
        <mxCell id="7j6lfnYyGTvN87-KgUNk-22" value="" style="rounded=0;whiteSpace=wrap;html=1;align=left;verticalAlign=top;" parent="1" vertex="1">
          <mxGeometry x="1080" y="800" width="350" height="160" as="geometry" />
        </mxCell>
        <mxCell id="7j6lfnYyGTvN87-KgUNk-23" value="&lt;span style=&quot;font-size: 24px;&quot;&gt;val&lt;br&gt;&lt;/span&gt;" style="rounded=0;whiteSpace=wrap;html=1;" parent="1" vertex="1">
          <mxGeometry x="1090" y="870" width="80" height="80" as="geometry" />
        </mxCell>
        <mxCell id="7j6lfnYyGTvN87-KgUNk-24" value="&lt;font style=&quot;font-size: 24px;&quot;&gt;next&lt;/font&gt;" style="rounded=0;whiteSpace=wrap;html=1;" parent="1" vertex="1">
          <mxGeometry x="1260" y="870" width="80" height="80" as="geometry" />
        </mxCell>
        <mxCell id="7j6lfnYyGTvN87-KgUNk-25" value="&lt;font style=&quot;font-size: 24px;&quot;&gt;3&lt;br&gt;&lt;/font&gt;" style="rounded=0;whiteSpace=wrap;html=1;" parent="1" vertex="1">
          <mxGeometry x="1170" y="870" width="80" height="80" as="geometry" />
        </mxCell>
        <mxCell id="7j6lfnYyGTvN87-KgUNk-26" value="&lt;font style=&quot;font-size: 24px;&quot;&gt;None&lt;/font&gt;" style="rounded=0;whiteSpace=wrap;html=1;" parent="1" vertex="1">
          <mxGeometry x="1340" y="870" width="80" height="80" as="geometry" />
        </mxCell>
        <mxCell id="7j6lfnYyGTvN87-KgUNk-27" value="&lt;font style=&quot;font-size: 24px;&quot;&gt;Node&lt;/font&gt;" style="text;html=1;strokeColor=none;fillColor=none;align=center;verticalAlign=middle;whiteSpace=wrap;rounded=0;" parent="1" vertex="1">
          <mxGeometry x="1110" y="820" width="140" height="30" as="geometry" />
        </mxCell>
        <mxCell id="7j6lfnYyGTvN87-KgUNk-28" value="" style="curved=1;endArrow=classic;html=1;rounded=0;" parent="1" source="7j6lfnYyGTvN87-KgUNk-19" target="7j6lfnYyGTvN87-KgUNk-22" edge="1">
          <mxGeometry width="50" height="50" relative="1" as="geometry">
            <mxPoint x="990" y="910" as="sourcePoint" />
            <mxPoint x="1030" y="940" as="targetPoint" />
            <Array as="points">
              <mxPoint x="1040" y="940" />
            </Array>
          </mxGeometry>
        </mxCell>
      </root>
    </mxGraphModel>
  </diagram>
</mxfile>
